<svg width="20" height="16" viewBox="0 0 20 16" fill="none" xmlns="http://www.w3.org/2000/svg">
<path d="M3.71428 10.8571C3.71428 10.8571 5.18095 10.8571 8.11428 10.8571L8.14286 8.02857C8.14286 8.02857 8.14286 7.60952 8.14286 6.77143C8.14286 5.70476 8.10476 5.1619 8.02857 5.14286C8.02857 5.14286 7.97143 5.14286 7.85714 5.14286C7.74286 5.14286 7.59047 5.13333 7.4 5.11429C7.20952 5.11429 7.01905 5.11429 6.82857 5.11429C6.73333 5.11429 6.57143 5.11429 6.34286 5.11429C6.11428 5.13333 5.93333 5.14286 5.8 5.14286L3.71428 5.14286L3.71428 10.8571ZM11.8857 10.8571L16.2857 10.8571L16.3143 8.02857L16.3143 6.77143C16.3143 5.70476 16.2762 5.1619 16.2 5.14286L16.0286 5.14286C15.9143 5.14286 15.7619 5.13333 15.5714 5.11429C15.381 5.11429 15.1905 5.11429 15 5.11429C14.9048 5.11429 14.7429 5.11429 14.5143 5.11429C14.2857 5.13333 14.1048 5.14286 13.9714 5.14286L11.8857 5.14286L11.8857 10.8571ZM18.4 0.0285714C19.2381 0.047619 19.7048 0.0952381 19.8 0.171429C19.8952 0.247619 19.9524 0.571429 19.9714 1.14286C19.9905 1.73333 20 3.64762 20 6.88571C20 11.2476 19.9429 13.4952 19.8286 13.6286C19.7143 13.7619 19.2667 13.8286 18.4857 13.8286L17.2857 13.8286L17.2857 15.1429C17.2857 15.5429 17.1714 15.781 16.9429 15.8571C16.7333 15.9524 16.1238 16 15.1143 16L14.0857 16C12.2381 16 11.2381 15.9524 11.0857 15.8571C10.9524 15.7619 10.8857 15.4 10.8857 14.7714L10.8857 13.8286L9.11428 13.8286L9.11428 14.7429C9.11428 15.3905 9.05714 15.7619 8.94286 15.8571C8.82857 15.9524 7.83809 16 5.97143 16C4.12381 16 3.11428 15.9524 2.94286 15.8571C2.82857 15.8 2.7619 15.7143 2.74285 15.6C2.72381 15.5048 2.71428 15.2286 2.71428 14.7714L2.71428 13.8286L1.54285 13.8286C0.761901 13.8286 0.314285 13.781 0.199998 13.6857C0.142856 13.6476 0.104759 13.5714 0.0857118 13.4571C0.0666632 13.3619 0.0476164 13.0762 0.0285696 12.6C0.00952095 12.1238 -2.40857e-06 11.4667 -2.37194e-06 10.6286C-2.33614e-06 9.80952 -2.28243e-06 8.58095 -2.21083e-06 6.94286C-2.06846e-06 3.68571 0.00952141 1.7619 0.0285701 1.17143C0.0476169 0.580952 0.104761 0.247618 0.199999 0.171428C0.295237 0.0952373 0.761904 0.0476182 1.6 0.0285707C2.43809 0.00952306 5.23809 -6.45263e-07 10 -4.37114e-07C14.7619 -2.28964e-07 17.5619 0.00952372 18.4 0.0285714Z" fill="#7F56D9"/>
</svg>
