<svg width="12" height="19" viewBox="0 0 12 19" fill="none" xmlns="http://www.w3.org/2000/svg">
<path d="M6.032 7.008C5.712 8.368 4.672 9.184 3.248 9.184C1.344 9.184 2.08901e-07 7.728 3.05416e-07 5.52L5.46701e-07 0L11.936 5.21739e-07L11.936 5.024C11.936 7.248 10.656 8.752 8.8 8.752C7.552 8.752 6.592 8.064 6.208 7.008H6.032ZM10.08 4.656V2.304H6.928V4.736C6.928 5.76 7.552 6.448 8.496 6.448C9.44 6.448 10.08 5.728 10.08 4.656ZM1.856 4.96C1.856 6.112 2.528 6.864 3.536 6.864C4.544 6.864 5.2 6.096 5.2 4.944V2.304H1.856L1.856 4.96Z" fill="#14342B"/>
<path d="M9.76 18.0271V12.5071L6.656 12.5071V17.1951H4.608V12.5071H0L1.00707e-07 10.2031L11.936 10.2031V18.0271H9.76Z" fill="#14342B"/>
</svg>
