<svg width="32" height="32" viewBox="0 0 32 32" fill="none" xmlns="http://www.w3.org/2000/svg">
<path opacity="0.2" d="M25 16C25 16.7911 24.7654 17.5645 24.3259 18.2223C23.8864 18.8801 23.2616 19.3928 22.5307 19.6955C21.7998 19.9983 20.9956 20.0775 20.2196 19.9231C19.4437 19.7688 18.731 19.3878 18.1716 18.8284C17.6122 18.269 17.2312 17.5563 17.0769 16.7804C16.9225 16.0044 17.0017 15.2002 17.3045 14.4693C17.6072 13.7384 18.1199 13.1136 18.7777 12.6741C19.4355 12.2346 20.2089 12 21 12C22.0609 12 23.0783 12.4214 23.8284 13.1716C24.5786 13.9217 25 14.9391 25 16ZM12 12H17V4H12C10.9391 4 9.92172 4.42143 9.17157 5.17157C8.42143 5.92172 8 6.93913 8 8C8 9.06087 8.42143 10.0783 9.17157 10.8284C9.92172 11.5786 10.9391 12 12 12ZM8 24.5C8 25.6935 8.47411 26.8381 9.31802 27.682C10.1619 28.5259 11.3065 29 12.5 29C13.6935 29 14.8381 28.5259 15.682 27.682C16.5259 26.8381 17 25.6935 17 24.5V20H12.5C11.3065 20 10.1619 20.4741 9.31802 21.318C8.47411 22.1619 8 23.3065 8 24.5Z" fill="#F95B5B"/>
<path d="M24.0015 12C24.841 11.3704 25.4611 10.4925 25.774 9.49084C26.0869 8.48916 26.0767 7.41442 25.7449 6.41886C25.413 5.4233 24.7764 4.55739 23.925 3.94379C23.0737 3.33019 22.0509 3 21.0015 3H12.0015C10.9521 3 9.92925 3.33019 9.07792 3.94379C8.22659 4.55739 7.58991 5.4233 7.25806 6.41886C6.9262 7.41442 6.91601 8.48916 7.22891 9.49084C7.54181 10.4925 8.16194 11.3704 9.00147 12C8.36583 12.4764 7.85282 13.0973 7.50496 13.8115C7.15709 14.5256 6.98437 15.3123 7.00111 16.1065C7.01785 16.9006 7.22356 17.6794 7.60121 18.3782C7.97885 19.077 8.51757 19.6758 9.17272 20.125C8.42752 20.6916 7.83926 21.439 7.46364 22.2964C7.08802 23.1539 6.93748 24.093 7.02627 25.0249C7.11506 25.9569 7.44024 26.8507 7.97102 27.6218C8.5018 28.3929 9.22061 29.0157 10.0594 29.4314C10.8982 29.8471 11.8292 30.0417 12.7642 29.997C13.6993 29.9523 14.6075 29.6696 15.4028 29.1758C16.198 28.682 16.8541 27.9934 17.3089 27.1751C17.7636 26.3569 18.002 25.4361 18.0015 24.5V20C19.0623 20.7956 20.3958 21.1373 21.7086 20.9497C23.0213 20.7622 24.2058 20.0609 25.0015 19C25.7971 17.9391 26.1388 16.6056 25.9512 15.2929C25.7637 13.9801 25.0623 12.7956 24.0015 12ZM24.0015 8C24.0015 8.79565 23.6854 9.55871 23.1228 10.1213C22.5602 10.6839 21.7971 11 21.0015 11H18.0015V5H21.0015C21.7971 5 22.5602 5.31607 23.1228 5.87868C23.6854 6.44129 24.0015 7.20435 24.0015 8ZM9.00147 8C9.00147 7.20435 9.31754 6.44129 9.88015 5.87868C10.4428 5.31607 11.2058 5 12.0015 5H16.0015V11H12.0015C11.2058 11 10.4428 10.6839 9.88015 10.1213C9.31754 9.55871 9.00147 8.79565 9.00147 8ZM12.0015 19C11.2058 19 10.4428 18.6839 9.88015 18.1213C9.31754 17.5587 9.00147 16.7956 9.00147 16C9.00147 15.2044 9.31754 14.4413 9.88015 13.8787C10.4428 13.3161 11.2058 13 12.0015 13H16.0015V19H12.0015ZM16.0015 24.5C16.0015 25.1922 15.7962 25.8689 15.4116 26.4445C15.027 27.0201 14.4804 27.4687 13.8409 27.7336C13.2013 27.9985 12.4976 28.0678 11.8187 27.9327C11.1397 27.7977 10.5161 27.4644 10.0266 26.9749C9.53712 26.4854 9.20377 25.8617 9.06873 25.1828C8.93368 24.5039 9.00299 23.8001 9.2679 23.1606C9.5328 22.5211 9.98141 21.9744 10.557 21.5899C11.1326 21.2053 11.8092 21 12.5015 21H16.0015V24.5ZM21.0015 19C20.4081 19 19.8281 18.8241 19.3348 18.4944C18.8414 18.1648 18.4569 17.6962 18.2298 17.1481C18.0028 16.5999 17.9434 15.9967 18.0591 15.4147C18.1749 14.8328 18.4606 14.2982 18.8802 13.8787C19.2997 13.4591 19.8343 13.1734 20.4162 13.0576C20.9981 12.9419 21.6013 13.0013 22.1495 13.2284C22.6977 13.4554 23.1662 13.8399 23.4959 14.3333C23.8255 14.8266 24.0015 15.4067 24.0015 16C24.0015 16.7956 23.6854 17.5587 23.1228 18.1213C22.5602 18.6839 21.7971 19 21.0015 19Z" fill="#F95B5B"/>
</svg>
