<svg width="26" height="16" viewBox="0 0 26 16" fill="none" xmlns="http://www.w3.org/2000/svg">
<path d="M7.67112 13.514L23.3199 16C23.3551 15.9645 25.1289 13.0081 25.1289 13.0081L12.677 10.916C12.4544 10.8369 13.645 9.36959 13.7855 9.17974L18.1336 3.30524C18.3037 3.07542 18.1431 2.74943 17.8572 2.74432L2.01847 6.78085e-07C2.02598 0.000144683 -0.0243739 2.74432 -0.000167689 2.74432L12.677 5.29214C12.9111 5.36149 10.6075 8.2485 10.6075 8.2485L7.40409 12.9534C7.23653 13.1798 7.38975 13.5015 7.67112 13.514Z" fill="#E9724C"/>
<path d="M22.2026 4.46156C20.7331 4.46156 19.5418 5.65281 19.5418 7.12229C19.5418 8.59177 20.7331 9.78302 22.2026 9.78302C23.672 9.78302 24.8633 8.59177 24.8633 7.12229C24.8633 5.65281 23.672 4.46156 22.2026 4.46156Z" fill="#007AFF"/>
</svg>
