<svg width="32" height="32" viewBox="0 0 32 32" fill="none" xmlns="http://www.w3.org/2000/svg">
<path opacity="0.2" d="M13 21C13 21.9889 12.7068 22.9556 12.1573 23.7779C11.6079 24.6001 10.827 25.241 9.91342 25.6194C8.99979 25.9978 7.99446 26.0969 7.02455 25.9039C6.05465 25.711 5.16373 25.2348 4.46447 24.5355C3.76521 23.8363 3.289 22.9454 3.09608 21.9755C2.90315 21.0055 3.00217 20.0002 3.3806 19.0866C3.75904 18.173 4.39991 17.3921 5.22215 16.8427C6.0444 16.2932 7.0111 16 8 16C9.32609 16 10.5979 16.5268 11.5355 17.4645C12.4732 18.4021 13 19.6739 13 21ZM24 16C23.0111 16 22.0444 16.2932 21.2222 16.8427C20.3999 17.3921 19.759 18.173 19.3806 19.0866C19.0022 20.0002 18.9031 21.0055 19.0961 21.9755C19.289 22.9454 19.7652 23.8363 20.4645 24.5355C21.1637 25.2348 22.0546 25.711 23.0245 25.9039C23.9945 26.0969 24.9998 25.9978 25.9134 25.6194C26.8271 25.241 27.6079 24.6001 28.1574 23.7779C28.7068 22.9556 29 21.9889 29 21C29 19.6739 28.4732 18.4021 27.5355 17.4645C26.5979 16.5268 25.3261 16 24 16Z" fill="#AC9835"/>
<path d="M29.65 18.9833C29.5665 18.7502 29.4684 18.5227 29.3563 18.302L24.1575 6.47451C24.1083 6.3606 24.0379 6.25709 23.95 6.16951C23.5786 5.79798 23.1376 5.50326 22.6522 5.30219C22.1668 5.10111 21.6466 4.99762 21.1213 4.99762C20.5959 4.99762 20.0757 5.10111 19.5903 5.30219C19.1049 5.50326 18.6639 5.79798 18.2925 6.16951C18.1056 6.3566 18.0005 6.61008 18 6.87451V9.99951H14V6.87451C14.0001 6.74315 13.9743 6.61306 13.9241 6.49166C13.8739 6.37027 13.8003 6.25995 13.7075 6.16701C13.3361 5.79548 12.8951 5.50076 12.4097 5.29969C11.9243 5.09861 11.4041 4.99512 10.8788 4.99512C10.3534 4.99512 9.83317 5.09861 9.34781 5.29969C8.86244 5.50076 8.42145 5.79548 8.05 6.16701C7.9621 6.25459 7.89168 6.3581 7.8425 6.47201L2.64375 18.2995C2.53161 18.5202 2.4335 18.7477 2.35 18.9808C2.05563 19.8044 1.9449 20.6825 2.02558 21.5535C2.10626 22.4244 2.37639 23.2672 2.81706 24.0228C3.25772 24.7784 3.85826 25.4285 4.5766 25.9276C5.29494 26.4266 6.11372 26.7626 6.97557 26.9119C7.83742 27.0613 8.7215 27.0204 9.56588 26.7921C10.4103 26.5638 11.1945 26.1537 11.8637 25.5904C12.5329 25.0272 13.0709 24.3244 13.4399 23.5314C13.8089 22.7383 14.0001 21.8742 14 20.9995V11.9995H18V20.9995C17.9996 21.8743 18.1904 22.7386 18.5592 23.5319C18.928 24.3252 19.4658 25.0282 20.1349 25.5917C20.804 26.1553 21.5882 26.5657 22.4326 26.7942C23.277 27.0227 24.1612 27.0638 25.0232 26.9147C25.8852 26.7655 26.7041 26.4296 27.4226 25.9306C28.1411 25.4316 28.7418 24.7815 29.1826 24.0258C29.6234 23.2702 29.8937 22.4273 29.9744 21.5563C30.0551 20.6852 29.9444 19.807 29.65 18.9833ZM9.58875 7.46826C9.92215 7.18754 10.3381 7.02341 10.7734 7.00085C11.2086 6.97828 11.6394 7.09852 12 7.34326V16.532C11.2193 15.831 10.268 15.3474 9.24147 15.1298C8.21498 14.9121 7.14931 14.9681 6.15125 15.292L9.58875 7.46826ZM8 24.9995C7.20888 24.9995 6.43552 24.7649 5.77772 24.3254C5.11992 23.8859 4.60723 23.2612 4.30448 22.5302C4.00173 21.7993 3.92252 20.9951 4.07686 20.2192C4.2312 19.4432 4.61216 18.7305 5.17157 18.1711C5.73098 17.6117 6.44372 17.2307 7.21964 17.0764C7.99556 16.922 8.79983 17.0012 9.53073 17.304C10.2616 17.6067 10.8864 18.1194 11.3259 18.7772C11.7654 19.435 12 20.2084 12 20.9995C12 22.0604 11.5786 23.0778 10.8284 23.8279C10.0783 24.5781 9.06087 24.9995 8 24.9995ZM20 7.34201C20.3606 7.09727 20.7914 6.97703 21.2266 6.9996C21.6619 7.02216 22.0779 7.18629 22.4112 7.46701L25.8487 15.2895C24.8506 14.9657 23.7849 14.91 22.7584 15.1278C21.7318 15.3457 20.7806 15.8295 20 16.5308V7.34201ZM24 24.9995C23.2089 24.9995 22.4355 24.7649 21.7777 24.3254C21.1199 23.8859 20.6072 23.2612 20.3045 22.5302C20.0017 21.7993 19.9225 20.9951 20.0769 20.2192C20.2312 19.4432 20.6122 18.7305 21.1716 18.1711C21.731 17.6117 22.4437 17.2307 23.2196 17.0764C23.9956 16.922 24.7998 17.0012 25.5307 17.304C26.2616 17.6067 26.8864 18.1194 27.3259 18.7772C27.7654 19.435 28 20.2084 28 20.9995C28 22.0604 27.5786 23.0778 26.8284 23.8279C26.0783 24.5781 25.0609 24.9995 24 24.9995Z" fill="#AC9835"/>
</svg>
