<svg width="25" height="16" viewBox="0 0 25 16" fill="none" xmlns="http://www.w3.org/2000/svg">
<path d="M15.7718 8.87707C16.1115 9.03763 16.2814 9.11791 16.4048 9.2668C16.4865 9.36528 16.5642 9.52918 16.5889 9.65469C16.6262 9.84447 16.5909 9.98684 16.5203 10.2716C16.361 10.9139 16.0777 11.2898 15.5458 12.1184C14.7959 13.2867 13.7694 14.252 12.5573 14.9288C11.3453 15.6056 9.98495 15.973 8.59694 15.9986C7.20892 16.0241 5.83603 15.7069 4.59988 15.0751C3.36372 14.4433 2.30246 13.5164 1.5101 12.3765C0.717739 11.2366 0.218733 9.91885 0.0572832 8.54001C-0.104166 7.16118 0.0769251 5.76381 0.584516 4.47169C0.960866 3.51365 1.37685 2.81568 1.99754 2.15185C2.20865 1.92606 2.31421 1.81317 2.47964 1.74119C2.61426 1.68261 2.80168 1.65694 2.9471 1.67717C3.12579 1.70203 3.28003 1.79592 3.58852 1.9837C4.1581 2.3304 4.44289 2.50375 4.55359 2.68986C4.66758 2.88151 4.69617 3.01612 4.66992 3.23755C4.64443 3.45259 4.41914 3.77809 3.96857 4.4291C3.70094 4.81578 3.47439 5.21056 3.3395 5.55394C3.00989 6.39301 2.89229 7.30041 2.99713 8.19578C3.10197 9.09115 3.42601 9.94685 3.94055 10.6871C4.45508 11.4273 5.14423 12.0292 5.94695 12.4395C6.74967 12.8497 7.64118 13.0557 8.54252 13.0391C9.44385 13.0226 10.3272 12.784 11.1143 12.3445C11.9014 11.905 12.5679 11.2781 13.0549 10.5195C13.1682 10.343 13.2709 10.1607 13.3628 9.97346C13.7691 9.1457 13.9722 8.73182 14.1516 8.604C14.3192 8.48462 14.4044 8.45484 14.6098 8.44372C14.8298 8.43181 15.1438 8.58023 15.7718 8.87707Z" fill="#1E1E1E"/>
<path d="M20.6002 13.7508C20.9818 13.9905 21.1726 14.1104 21.3976 14.1227C21.5239 14.1296 21.6881 14.0989 21.8034 14.0469C22.0087 13.9542 22.1251 13.798 22.3577 13.4858C22.9062 12.7497 23.3326 11.9269 23.6177 11.0488C24.024 9.79754 24.1323 8.46863 23.9338 7.1681C23.7353 5.86758 23.2356 4.63144 22.4745 3.55833C21.7135 2.48521 20.7122 1.60482 19.5505 0.987404C18.3888 0.369986 17.0988 0.0326302 15.7836 0.00225094C14.4684 -0.0281283 13.1642 0.249312 11.9753 0.812435C10.7863 1.37556 9.74539 2.20878 8.93561 3.24561C8.37875 3.95861 7.88522 4.50169 7.54726 5.19087C7.40578 5.47937 7.33504 5.62362 7.35408 5.86186C7.36358 5.98074 7.42474 6.16223 7.48912 6.26262C7.61814 6.46379 7.8098 6.5599 8.19311 6.75213C8.84272 7.0779 9.16753 7.24079 9.39156 7.23202C9.56016 7.22542 9.62743 7.20682 9.77546 7.12583C9.97215 7.01823 10.2154 6.63563 10.7018 5.87045C10.8896 5.57501 11.0871 5.29969 11.2684 5.06753C11.7942 4.39424 12.4702 3.85318 13.2422 3.4875C14.0143 3.12183 14.8612 2.94167 15.7153 2.96139C16.5693 2.98112 17.407 3.20019 18.1613 3.60112C18.9157 4.00206 19.5659 4.57375 20.0601 5.2706C20.5543 5.96745 20.8788 6.77015 21.0077 7.61468C21.1366 8.4592 21.0663 9.32215 20.8025 10.1347C20.6874 10.4892 20.4547 10.9225 20.1792 11.3488C19.7565 12.0027 19.5452 12.3296 19.5365 12.5694C19.5305 12.7371 19.5549 12.8474 19.6312 12.9969C19.7404 13.2106 20.027 13.3907 20.6002 13.7508Z" fill="#1E1E1E"/>
</svg>
